<svg width="195" height="179" viewBox="0 0 195 179" fill="none" xmlns="http://www.w3.org/2000/svg">
<path d="M76.6267 145.667C120.587 145.667 144.627 109.25 144.627 77.671C144.627 76.6364 144.6 75.6057 144.56 74.5817C149.227 71.2084 153.28 66.9989 156.48 62.2083C152.2 64.1096 147.587 65.3924 142.76 65.9697C147.693 63.0124 151.48 58.3297 153.267 52.7497C148.64 55.4883 143.533 57.479 138.093 58.551C133.72 53.9056 127.52 51.0003 120.64 51.0003C107.44 51.0003 96.7466 61.703 96.7466 74.8963C96.7466 76.7723 96.9467 78.5963 97.36 80.3456C77.4934 79.347 59.8933 69.8377 48.1066 55.3777C46.0533 58.907 44.8667 63.0124 44.8667 67.3884C44.8667 75.6804 49.08 82.999 55.5066 87.2817C51.5866 87.1604 47.8933 86.083 44.6799 84.291C44.6666 84.391 44.6667 84.491 44.6667 84.5963C44.6667 96.171 52.9066 105.834 63.84 108.026C61.84 108.571 59.7199 108.866 57.5466 108.866C55.9999 108.866 54.5066 108.714 53.0533 108.435C56.0933 117.93 64.92 124.839 75.3733 125.034C67.2 131.443 56.8934 135.263 45.6934 135.263C43.7734 135.263 41.8667 135.154 40 134.932C50.5733 141.71 63.1334 145.667 76.6267 145.667Z" fill="white"/>
<path d="M3 79.6473C3 76.6643 3.27988 74.1195 4.02139 71.2334C5.29146 66.2901 5.89274 60.9623 7.39983 56.1356C10.661 45.6911 14.4967 33.7447 23.5849 26.9228C37.2266 16.683 54.8527 11.2447 70.8831 6.04532C85.1648 1.41308 99.6091 2.71471 114.017 5.65215C126.486 8.19433 139.127 9.36759 149.923 16.661C162.987 25.4866 178.025 35.4785 186.025 49.4909C190.729 57.7296 189.768 68.7023 190.778 77.7994C191.67 85.8314 192.849 93.3825 191.093 101.429C188.47 113.448 181.706 127.038 174.436 136.933C170.374 142.462 163.98 146.567 158.644 150.733C152.922 155.2 147.208 159.922 140.848 163.472C128.712 170.246 114.906 173.632 101.132 174.638C76.9141 176.407 47.3114 179.339 27.3562 161.899C20.4898 155.898 14.0744 145.571 12.2318 136.657C11.2986 132.143 12.1139 128.284 12.1139 123.801C12.1139 118.596 11.2771 113.881 12.0354 108.663C13.0755 101.506 12.4187 95.1784 14.7067 88.1005C17.3484 79.9283 23.3755 74.2476 27.0419 66.9085" stroke="white" stroke-width="5" stroke-linecap="round"/>
</svg>
