<svg width="174" height="170" viewBox="0 0 174 170" fill="none" xmlns="http://www.w3.org/2000/svg">
<path d="M129.811 46.7113C129.467 45.698 129.056 45.4313 128.415 45.178C127.012 44.658 124.636 45.4447 124.636 45.4447C124.636 45.4447 40.523 75.6847 35.7177 79.0313C34.683 79.7513 34.3364 80.178 34.1644 80.6713C33.3337 83.0447 35.9217 84.098 35.9217 84.098L57.6017 91.1647C57.6017 91.1647 58.4097 91.2847 58.6977 91.098C63.6297 87.978 108.319 59.7647 110.896 58.818C111.303 58.698 111.604 58.8313 111.524 59.1113C110.492 62.738 71.6777 97.2313 71.6777 97.2313C71.6777 97.2313 71.5297 97.418 71.4364 97.6313L71.3857 97.6047L69.363 119.111C69.363 119.111 68.515 125.698 75.103 119.111C79.751 114.458 84.2484 110.565 86.499 108.685C93.9537 113.831 101.976 119.525 105.439 122.498C107.178 123.991 108.632 124.231 109.83 124.191C113.116 124.071 114.034 120.458 114.034 120.458C114.034 120.458 129.362 58.7647 129.874 50.498C129.924 49.6847 129.994 49.178 129.999 48.618C130.008 47.8447 129.936 47.0713 129.811 46.7113Z" fill="white"/>
<path d="M160.62 19.8932C142.246 5.02476 120.128 2.20657 95.9654 3.16973C82.5251 3.70548 66.4754 4.06749 54.1271 9.09264C44.7085 12.9256 36.2073 17.7333 27.381 22.5256C19.0041 27.0739 14.8852 31.0292 10.9493 38.862C6.2115 48.2909 3.52433 58.8492 3.13536 69.1347C2.22744 93.1429 5.5627 116.827 23.0945 136.416C33.6426 148.201 49.4464 158.734 64.9774 165.217C70.5574 167.547 77.0088 167.015 83.0165 166.766C93.711 166.322 104.333 164.757 114.764 162.701C125.425 160.6 139.075 158.131 147.359 151.475C155.515 144.921 161.184 135.284 164.996 126.351C172.924 107.774 173.344 86.3806 164.193 67.9733C160.499 60.5441 157.33 52.963 153.387 45.6366C150.755 40.7466 146.873 36.9593 143.742 32.4359" stroke="white" stroke-width="5" stroke-linecap="round"/>
</svg>
